HIERARCHY
ROOT Hips
{
  OFFSET 56.5245 85.8259 14.4053
  CHANNELS 6 Xposition Yposition Zposition Zrotation Xrotation Yrotation
  JOINT spine
  {
    OFFSET 0 6.3926 0.367606
    CHANNELS 3 Zrotation Xrotation Yrotation
    JOINT spine1
    {
      OFFSET 0 9.17611 0
      CHANNELS 3 Zrotation Xrotation Yrotation
      JOINT spine2
      {
        OFFSET 0 8.79238 0
        CHANNELS 3 Zrotation Xrotation Yrotation
        JOINT Neck
        {
          OFFSET 0 22.5737 1.07624
          CHANNELS 3 Zrotation Xrotation Yrotation
          JOINT Head
          {
            OFFSET 0 6.82011 0
            CHANNELS 3 Zrotation Xrotation Yrotation
            End Site
            {
              OFFSET 0 16.5085 -5.44427
            }
          }
        }
        JOINT RightShoulder
        {
          OFFSET -3.70221 9.49509 -0.515508
          CHANNELS 3 Zrotation Xrotation Yrotation
          JOINT RightArm
          {
            OFFSET 0 12.4537 0
            CHANNELS 3 Zrotation Xrotation Yrotation
            JOINT RightArmRoll
            {
              OFFSET 0 6.28686 0
              CHANNELS 3 Zrotation Xrotation Yrotation
              JOINT RightForeArm
              {
                OFFSET 0 18.3114 0
                CHANNELS 3 Zrotation Xrotation Yrotation
                JOINT RightForeArmRoll
                {
                  OFFSET 0 7.05482 0
                  CHANNELS 3 Zrotation Xrotation Yrotation
                  JOINT RightHand
                  {
                    OFFSET 0 14.1575 0
                    CHANNELS 3 Zrotation Xrotation Yrotation
                    End Site
                    {
                      OFFSET 0 0 0
                    }
                  }
                }
              }
            }
          }
        }
        JOINT LeftShoulder
        {
          OFFSET 3.70221 9.49509 -0.515508
          CHANNELS 3 Zrotation Xrotation Yrotation
          JOINT LeftArm
          {
            OFFSET 0 12.4537 0
            CHANNELS 3 Zrotation Xrotation Yrotation
            JOINT LeftArmRoll
            {
              OFFSET 0 6.28686 0
              CHANNELS 3 Zrotation Xrotation Yrotation
              JOINT LeftForeArm
              {
                OFFSET 0 18.3114 0
                CHANNELS 3 Zrotation Xrotation Yrotation
                JOINT LeftForeArmRoll
                {
                  OFFSET 0 7.05483 0
                  CHANNELS 3 Zrotation Xrotation Yrotation
                  JOINT LeftHand
                  {
                    OFFSET 0 14.1575 0
                    CHANNELS 3 Zrotation Xrotation Yrotation
                    End Site
                    {
                      OFFSET 0 0 0
                    }
                  }
                }
              }
            }
          }
        }
      }
    }
  }
  JOINT RightUpLeg
  {
    OFFSET -5.66616 -1.03903 -0.87161
    CHANNELS 3 Zrotation Xrotation Yrotation
    JOINT RightUpLegRoll
    {
      OFFSET 0 16.6005 0
      CHANNELS 3 Zrotation Xrotation Yrotation
      JOINT RightLeg
      {
        OFFSET 0 -20.5572 0
        CHANNELS 3 Zrotation Xrotation Yrotation
        JOINT RightLegRoll
        {
          OFFSET 0 20.6244 0
          CHANNELS 3 Zrotation Xrotation Yrotation
          JOINT RightFoot
          {
            OFFSET 0 17.1664 0
            CHANNELS 3 Zrotation Xrotation Yrotation
            JOINT RightToeBase
            {
              OFFSET 0 14.3502 0
              CHANNELS 3 Zrotation Xrotation Yrotation
              End Site
              {
                OFFSET 0.00608252 6.94971 -0.801061
              }
            }
          }
        }
      }
    }
  }
  JOINT LeftUpLeg
  {
    OFFSET 5.66616 -1.03903 -0.87161
    CHANNELS 3 Zrotation Xrotation Yrotation
    JOINT LeftUpLegRoll
    {
      OFFSET 0 16.6006 0
      CHANNELS 3 Zrotation Xrotation Yrotation
      JOINT LeftLeg
      {
        OFFSET 0 20.5571 0
        CHANNELS 3 Zrotation Xrotation Yrotation
        JOINT LeftLegRoll
        {
          OFFSET 0 20.8151 0
          CHANNELS 3 Zrotation Xrotation Yrotation
          JOINT LeftFoot
          {
            OFFSET 0 16.9757 0
            CHANNELS 3 Zrotation Xrotation Yrotation
            JOINT LeftToeBase
            {
              OFFSET 0 14.3502 0
              CHANNELS 3 Zrotation Xrotation Yrotation
              End Site
              {
                OFFSET -0.0272592 6.94971 -0.801061
              }
            }
          }
        }
      }
    }
  }
}
MOTION
Frames: 12
Frame Time: 0.00208333
55.5506 85.8729 14.2746 -2.30028 -4.00822 -0.551548 -0.0881427 -1.00385 -0.183176 -0.190145 1.98652 -0.350358 -0.186052 3.63158 -0.347297 4.85685 7.29966 -1.73109 -1.414 5.36024 -0.464989 65.1074 -1.24078 -1.41232 106.76 19.0909 4.24107 1.32411e-006 -7.65388e-008 -4.23254e-006 13.7281 3.78525 -0.859401 1.37261e-006 -4.91849e-006 -3.00142 8.0289 -4.95145 0.697701 -53.3638 -0.651685 -0.283721 -113.622 15.9903 -1.50563 2.28239e-005 -3.87104e-006 4.51668e-006 -8.22937 1.47228 0.704034 3.45338e-006 4.00189e-006 3.01035 -8.0291 -4.95145 -0.697676 177.47 -1.93026 -0.685535 180 7.01535e-015 178.87 178.167 5.14706 179.68 -3.89279e-006 3.13346e-006 0.0427314 -18.641 67.8418 19.3935 8.13649 25.2327 -3.48774 -172.925 -2.81142 -0.987443 4.54188e-006 -4.6773e-006 -1.13278 -1.28444 -6.56251 0.437246 -3.25841e-006 3.62992e-006 -0.0452631 18.3535 68.5897 -20.0188 -8.1365 25.2328 3.48759 
55.5495 85.8284 14.2763 -2.30227 -4.00865 -0.550935 -0.0879918 -1.00454 -0.183263 -0.190171 1.98704 -0.351465 -0.186071 3.63209 -0.348415 4.86952 7.29193 -1.72596 -1.43323 5.39283 -0.456905 65.1253 -1.24478 -1.41638 106.733 19.122 4.32954 1.32411e-006 -7.65388e-008 -4.23254e-006 13.6726 3.72155 -0.854262 1.37261e-006 -4.91849e-006 -3.00142 8.0289 -4.95145 0.697701 -53.3555 -0.64728 -0.287778 -113.625 16.0008 -1.56073 2.28239e-005 -3.87104e-006 4.51668e-006 -8.17447 1.4527 0.703611 3.45338e-006 4.00189e-006 3.01035 -8.0291 -4.95145 -0.697676 177.471 -1.9285 -0.682957 180 7.01535e-015 178.87 178.161 5.14935 179.681 -3.89279e-006 3.13346e-006 0.0427314 -18.6401 67.8407 19.3925 8.13649 25.2327 -3.48774 -172.922 -2.81101 -0.992393 4.54188e-006 -4.6773e-006 -1.13259 -1.28977 -6.56602 0.436807 -3.25841e-006 3.62992e-006 -0.0455386 18.3558 68.5919 -20.0198 -8.1365 25.2328 3.48759 
55.5494 85.8366 14.2791 -2.30425 -4.00914 -0.550225 -0.0878293 -1.00526 -0.183349 -0.19022 1.98759 -0.352615 -0.186114 3.63265 -0.349575 4.88213 7.28328 -1.72056 -1.45263 5.42648 -0.448589 65.1432 -1.24864 -1.42036 106.707 19.1526 4.41638 1.32411e-006 -7.65388e-008 -4.23254e-006 13.6182 3.65885 -0.849176 1.37261e-006 -4.91849e-006 -3.00142 8.0289 -4.95145 0.697701 -53.3469 -0.642755 -0.291945 -113.628 16.0109 -1.61526 2.28239e-005 -3.87104e-006 4.51668e-006 -8.11986 1.43412 0.70323 3.45338e-006 4.00189e-006 3.01035 -8.0291 -4.95145 -0.697676 177.473 -1.92676 -0.680144 180 7.01535e-015 178.87 178.155 5.15162 179.681 -3.89279e-006 3.13346e-006 0.0427314 -18.6391 67.8395 19.3915 8.13649 25.2327 -3.48774 -172.92 -2.81077 -0.997528 4.54188e-006 -4.6773e-006 -1.1324 -1.29541 -6.56948 0.436329 -3.25841e-006 3.62992e-006 -0.0458204 18.3582 68.5941 -20.0207 -8.1365 25.2328 3.48759 
55.5493 85.8644 14.2798 -2.30622 -4.00969 -0.549448 -0.0876586 -1.00601 -0.183434 -0.190287 1.98818 -0.353794 -0.186174 3.63324 -0.350765 4.89469 7.27399 -1.71497 -1.47217 5.46088 -0.440111 65.161 -1.25239 -1.42429 106.681 19.1829 4.50211 1.32411e-006 -7.65388e-008 -4.23254e-006 13.5644 3.59685 -0.844128 1.37261e-006 -4.91849e-006 -3.00142 8.0289 -4.95145 0.697701 -53.3383 -0.638145 -0.296188 -113.632 16.0208 -1.6694 2.28239e-005 -3.87104e-006 4.51668e-006 -8.06545 1.41626 0.702879 3.45338e-006 4.00189e-006 3.01035 -8.0291 -4.95145 -0.697676 177.474 -1.92503 -0.677165 180 7.01535e-015 178.87 178.148 5.15393 179.682 -3.89279e-006 3.13346e-006 0.0427314 -18.6382 67.8384 19.3905 8.13649 25.2327 -3.48774 -172.917 -2.81066 -1.00279 4.54188e-006 -4.6773e-006 -1.13219 -1.30128 -6.5729 0.435825 -3.25841e-006 3.62992e-006 -0.0461066 18.3608 68.5964 -20.0217 -8.1365 25.2328 3.48759 
55.5497 85.8526 14.2736 -2.30819 -4.01025 -0.548632 -0.0874832 -1.00677 -0.183519 -0.190363 1.98879 -0.35499 -0.186244 3.63384 -0.351972 4.90723 7.26433 -1.70926 -1.49177 5.4957 -0.431539 65.1789 -1.2561 -1.42819 106.656 19.213 4.58721 1.32411e-006 -7.65388e-008 -4.23254e-006 13.511 3.53524 -0.839102 1.37261e-006 -4.91849e-006 -3.00142 8.0289 -4.95145 0.697701 -53.3295 -0.633487 -0.300475 -113.636 16.0306 -1.72331 2.28239e-005 -3.87104e-006 4.51668e-006 -8.01116 1.3988 0.702545 3.45338e-006 4.00189e-006 3.01035 -8.0291 -4.95145 -0.697676 177.475 -1.92331 -0.674093 180 7.01535e-015 178.87 178.142 5.15623 179.683 -3.89279e-006 3.13346e-006 0.0427314 -18.6372 67.8372 19.3895 8.13649 25.2327 -3.48774 -172.914 -2.81063 -1.00813 4.54188e-006 -4.6773e-006 -1.13199 -1.30726 -6.5763 0.435304 -3.25841e-006 3.62992e-006 -0.0463953 18.3634 68.5987 -20.0226 -8.1365 25.2328 3.48759 
55.5563 85.8628 14.2753 -2.31015 -4.01083 -0.547806 -0.0873066 -1.00754 -0.183604 -0.190442 1.9894 -0.35619 -0.186316 3.63446 -0.353183 4.91977 7.25458 -1.70353 -1.51141 5.53063 -0.422943 65.1968 -1.25978 -1.43209 106.63 19.243 4.67217 1.32411e-006 -7.65388e-008 -4.23254e-006 13.4578 3.47374 -0.834083 1.37261e-006 -4.91849e-006 -3.00142 8.0289 -4.95145 0.697701 -53.3207 -0.628817 -0.304772 -113.64 16.0403 -1.77717 2.28239e-005 -3.87104e-006 4.51668e-006 -7.9569 1.38144 0.702214 3.45338e-006 4.00189e-006 3.01035 -8.0291 -4.95145 -0.697676 177.476 -1.9216 -0.670996 180 7.01535e-015 178.87 178.135 5.15854 179.683 -3.89279e-006 3.13346e-006 0.0427314 -18.6363 67.8361 19.3884 8.13649 25.2327 -3.48774 -172.912 -2.81061 -1.01349 4.54188e-006 -4.6773e-006 -1.13178 -1.31328 -6.57969 0.43478 -3.25841e-006 3.62992e-006 -0.0466847 18.3661 68.601 -20.0236 -8.1365 25.2328 3.48759 
55.5638 85.8603 14.279 -2.31212 -4.01139 -0.547 -0.0871324 -1.0083 -0.183689 -0.190515 1.99 -0.357382 -0.186383 3.63506 -0.354386 4.93232 7.24502 -1.69786 -1.53102 5.56534 -0.414393 65.2147 -1.2635 -1.436 106.605 19.2731 4.7575 1.32411e-006 -7.65388e-008 -4.23254e-006 13.4044 3.41204 -0.829055 1.37261e-006 -4.91849e-006 -3.00142 8.0289 -4.95145 0.697701 -53.312 -0.624171 -0.309048 -113.644 16.0501 -1.83115 2.28239e-005 -3.87104e-006 4.51668e-006 -7.90258 1.36388 0.701876 3.45338e-006 4.00189e-006 3.01035 -8.0291 -4.95145 -0.697676 177.477 -1.91988 -0.667948 180 7.01535e-015 178.87 178.128 5.16083 179.684 -3.89279e-006 3.13346e-006 0.0427314 -18.6353 67.8349 19.3874 8.13649 25.2327 -3.48774 -172.909 -2.81056 -1.01881 4.54188e-006 -4.6773e-006 -1.13158 -1.31924 -6.5831 0.434264 -3.25841e-006 3.62992e-006 -0.0469727 18.3688 68.6033 -20.0245 -8.1365 25.2328 3.48759 
55.5616 85.8628 14.2796 -2.31409 -4.01192 -0.546242 -0.086964 -1.00904 -0.183774 -0.190577 1.99058 -0.358553 -0.186438 3.63564 -0.355567 4.9449 7.23591 -1.69232 -1.55056 5.59952 -0.405958 65.2326 -1.26729 -1.43994 106.579 19.3033 4.84369 1.32411e-006 -7.65388e-008 -4.23254e-006 13.3504 3.34984 -0.824003 1.37261e-006 -4.91849e-006 -3.00142 8.0289 -4.95145 0.697701 -53.3033 -0.619585 -0.313269 -113.647 16.06 -1.88542 2.28239e-005 -3.87104e-006 4.51668e-006 -7.84812 1.34581 0.701517 3.45338e-006 4.00189e-006 3.01035 -8.0291 -4.95145 -0.697676 177.478 -1.91815 -0.665016 180 7.01535e-015 178.87 178.122 5.16313 179.685 -3.89279e-006 3.13346e-006 0.0427314 -18.6344 67.8338 19.3864 8.13649 25.2327 -3.48774 -172.906 -2.81042 -1.02404 4.54188e-006 -4.6773e-006 -1.13138 -1.32503 -6.58653 0.433767 -3.25841e-006 3.62992e-006 -0.0472577 18.3713 68.6056 -20.0255 -8.1365 25.2328 3.48759 
55.5603 85.8628 14.2724 -2.31608 -4.01239 -0.545561 -0.0868049 -1.00975 -0.18386 -0.190619 1.99113 -0.35969 -0.186474 3.63618 -0.356715 4.95754 7.22753 -1.687 -1.56998 5.63286 -0.397706 65.2504 -1.27119 -1.44395 106.551 19.3338 4.93123 1.32411e-006 -7.65388e-008 -4.23254e-006 13.2957 3.28684 -0.818911 1.37261e-006 -4.91849e-006 -3.00142 8.0289 -4.95145 0.697701 -53.2949 -0.615096 -0.317403 -113.65 16.0702 -1.94016 2.28239e-005 -3.87104e-006 4.51668e-006 -7.79342 1.32694 0.701124 3.45338e-006 4.00189e-006 3.01035 -8.0291 -4.95145 -0.697676 177.479 -1.9164 -0.662273 180 7.01535e-015 178.87 178.116 5.1654 179.685 -3.89279e-006 3.13346e-006 0.0427314 -18.6335 67.8327 19.3854 8.13649 25.2327 -3.48774 -172.904 -2.81013 -1.02912 4.54188e-006 -4.6773e-006 -1.13118 -1.33058 -6.59 0.433301 -3.25841e-006 3.62992e-006 -0.0475376 18.3737 68.6078 -20.0264 -8.1365 25.2328 3.48759 
55.5648 85.8181 14.2814 -2.31808 -4.0128 -0.544987 -0.0866588 -1.01043 -0.183947 -0.190635 1.99162 -0.36078 -0.186483 3.63668 -0.357816 4.97025 7.22017 -1.68199 -1.58922 5.66502 -0.389709 65.2683 -1.27524 -1.44804 106.523 19.3646 5.02064 1.32411e-006 -7.65388e-008 -4.23254e-006 13.2399 3.22274 -0.813765 1.37261e-006 -4.91849e-006 -3.00142 8.0289 -4.95145 0.697701 -53.2866 -0.610741 -0.321417 -113.653 16.0806 -1.99553 2.28239e-005 -3.87104e-006 4.51668e-006 -7.73841 1.30694 0.700685 3.45338e-006 4.00189e-006 3.01035 -8.0291 -4.95145 -0.697676 177.481 -1.91463 -0.659789 180 7.01535e-015 178.87 178.11 5.16768 179.686 -3.89279e-006 3.13346e-006 0.0427314 -18.6325 67.8316 19.3844 8.13649 25.2327 -3.48774 -172.901 -2.80964 -1.03399 4.54188e-006 -4.6773e-006 -1.131 -1.33578 -6.59353 0.432878 -3.25841e-006 3.62992e-006 -0.0478107 18.3758 68.61 -20.0274 -8.1365 25.2328 3.48759 
55.561 85.8268 14.2797 -2.32009 -4.01311 -0.544549 -0.086529 -1.01106 -0.184035 -0.190617 1.99206 -0.361811 -0.186459 3.63711 -0.358859 4.98305 7.21409 -1.67737 -1.60824 5.6957 -0.382034 65.2862 -1.2795 -1.45223 106.494 19.3959 5.11239 1.32411e-006 -7.65388e-008 -4.23254e-006 13.1827 3.15724 -0.808549 1.37261e-006 -4.91849e-006 -3.00142 8.0289 -4.95145 0.697701 -53.2787 -0.606554 -0.325277 -113.654 16.0915 -2.05172 2.28239e-005 -3.87104e-006 4.51668e-006 -7.68298 1.28553 0.700188 3.45338e-006 4.00189e-006 3.01035 -8.0291 -4.95145 -0.697676 177.482 -1.91282 -0.657635 180 7.01535e-015 178.87 178.105 5.16992 179.686 -3.89279e-006 3.13346e-006 0.0427314 -18.6316 67.8304 19.3834 8.13649 25.2327 -3.48774 -172.898 -2.80889 -1.03861 4.54188e-006 -4.6773e-006 -1.13082 -1.34055 -6.59713 0.432509 -3.25841e-006 3.62992e-006 -0.0480749 18.3776 68.6121 -20.0284 -8.1365 25.2328 3.48759 
55.5492 85.8606 14.275 -2.32213 -4.01332 -0.544275 -0.086419 -1.01163 -0.184124 -0.190559 1.99241 -0.36277 -0.186394 3.63747 -0.35983 4.99597 7.20958 -1.67322 -1.62697 5.72456 -0.374753 65.3041 -1.28399 -1.45655 106.462 19.4278 5.207 1.32411e-006 -7.65388e-008 -4.23254e-006 13.1238 3.09004 -0.803247 1.37261e-006 -4.91849e-006 -3.00142 8.0289 -4.95145 0.697701 -53.2711 -0.602573 -0.328952 -113.655 16.1029 -2.10889 2.28239e-005 -3.87104e-006 4.51668e-006 -7.62707 1.2624 0.699621 3.45338e-006 4.00189e-006 3.01035 -8.0291 -4.95145 -0.697676 177.483 -1.91097 -0.65588 180 7.01535e-015 178.87 178.1 5.17213 179.687 -3.89279e-006 3.13346e-006 0.0427314 -18.6307 67.8294 19.3824 8.13649 25.2327 -3.48774 -172.895 -2.80783 -1.04291 4.54188e-006 -4.6773e-006 -1.13066 -1.34478 -6.60082 0.432206 -3.25841e-006 3.62992e-006 -0.0483285 18.3791 68.614 -20.0294 -8.1365 25.2328 3.48759 
